<svg id="Capa_1" enable-background="new 0 0 512 512" height="512" viewBox="0 0 512 512" width="512" xmlns="http://www.w3.org/2000/svg"><g><path d="m256 0c-86.123 0-156.189 70.066-156.189 156.189v84.811h-15c-8.284 0-15 6.716-15 15v157.835c0 54.128 44.037 98.165 98.165 98.165h176.05c54.128 0 98.164-44.037 98.164-98.165v-157.835c0-8.284-6.716-15-15-15h-15v-84.811c-.001-86.123-70.067-156.189-156.19-156.189zm-126.189 156.189c0-69.581 56.608-126.189 126.189-126.189s126.189 56.608 126.189 126.189v84.811h-252.378zm282.378 257.646c0 37.586-30.578 68.165-68.164 68.165h-176.05c-37.586 0-68.165-30.579-68.165-68.165v-142.835h312.379z"/><path d="m279.302 338.198h-46.604c-8.284 0-15 6.716-15 15s6.716 15 15 15h8.302v31.604c0 8.284 6.716 15 15 15s15-6.716 15-15v-31.604h8.302c8.284 0 15-6.716 15-15s-6.716-15-15-15z"/></g></svg>