<svg id="Capa_1" enable-background="new 0 0 512 512" height="512" viewBox="0 0 512 512" width="512" xmlns="http://www.w3.org/2000/svg"><g><path d="m220.784 72.135c-16.978-17.153-46.264-8.811-51.665 14.698l-36.586 142.264-85.923 85.044c-5.883 5.822-5.938 15.325-.109 21.213l7.927 8.009-32.077 31.75c-5.888 5.828-5.937 15.325-.109 21.213l73.191 73.948c5.839 5.899 15.338 5.925 21.213.109l32.077-31.75 7.927 8.008c5.827 5.888 15.324 5.937 21.213.109l11.794-11.674 71.736 72.476c5.838 5.898 15.337 5.926 21.213.109l43.956-43.507c5.888-5.828 5.937-15.325.109-21.213l-71.735-72.477 8.85-8.76 142.634-35.122c23.577-5.163 32.196-34.367 15.228-51.511zm-114.581 366.373-52.088-52.626 21.416-21.198 52.088 52.625zm-27.828-113.597 67.545-66.854 89.045 89.964s-66.76 66.078-67.545 66.854zm216.422 128.473-22.635 22.403-61.183-61.816 22.635-22.403zm105.196-156.105c-.416.105-138.724 34.149-139.14 34.251-1.443-1.458-96.621-97.618-98.178-99.191.101-.391 35.563-138.4 35.68-138.78.181-.593.748-.679 1.106-.321l200.863 202.937c.33.339.265.954-.331 1.104z"/><path d="m446.967 49.566c-30.841-31.493-72.107-49.095-116.197-49.564-8.276-.133-15.069 6.557-15.158 14.839-.088 8.284 6.556 15.071 14.84 15.159 36.078.384 69.846 14.787 95.081 40.556 25.234 25.769 38.928 59.83 38.558 95.908-.085 8.284 6.562 15.068 14.845 15.153.053 0 .105.001.157.001 8.212 0 14.912-6.615 14.996-14.846.453-44.089-16.282-85.713-47.122-117.206z"/><path d="m330.135 60.138c-.053-.001-.104-.001-.155-.001-8.213 0-14.913 6.616-14.996 14.848-.084 8.284 6.563 15.067 14.847 15.151 20.003.203 38.733 8.191 52.739 22.494s21.602 33.196 21.386 53.198c-.09 8.284 6.554 15.071 14.837 15.161.056 0 .11.001.165.001 8.209 0 14.907-6.61 14.996-14.838.302-28.019-10.334-54.481-29.95-74.512-19.617-20.031-45.85-31.218-73.869-31.502z"/></g></svg>