<svg id="Capa_1" enable-background="new 0 0 512 512" height="512" viewBox="0 0 512 512" width="512" xmlns="http://www.w3.org/2000/svg"><g><path d="m64.194 441h383.611c35.397 0 64.195-28.797 64.195-64.194 0-7.126 0-225.492 0-241.611 0-35.398-28.798-64.195-64.194-64.195h-383.612c-35.396 0-64.194 28.797-64.194 64.194v241.611c0 35.398 28.798 64.195 64.194 64.195zm383.612-30h-383.612c-18.854 0-34.194-15.339-34.194-34.194v-95.806h452v95.806c0 18.855-15.34 34.194-34.194 34.194zm-417.806-190h452v30h-452zm34.194-120h383.611c18.855 0 34.195 15.339 34.195 34.194v55.806h-452v-55.806c0-18.855 15.34-34.194 34.194-34.194z"/><path d="m75 161.002h88.804c8.284 0 15-6.716 15-15s-6.716-15-15-15h-88.804c-8.284 0-15 6.716-15 15s6.716 15 15 15z"/><path d="m437 331h-362c-8.284 0-15 6.716-15 15s6.716 15 15 15h362c8.284 0 15-6.716 15-15s-6.716-15-15-15z"/></g></svg>