<svg id="Capa_1" enable-background="new 0 0 512 512" height="512" viewBox="0 0 512 512" width="512" xmlns="http://www.w3.org/2000/svg"><g><path d="m331.806.464-155.236 38.645-157.946-38.645c-9.481-2.359-18.624 4.834-18.624 14.554v442.427c0 6.888 4.691 12.891 11.376 14.555 164.616 40.981 162.622 41.088 168.818 39.548l155.235-38.645 157.946 38.645c9.451 2.353 18.624-4.8 18.624-14.555v-442.427c0-6.888-4.691-12.891-11.376-14.555-170.692-42.494-163.73-40.812-168.817-39.547zm-301.806 33.746 131.57 32.079v411.512l-131.57-32.079zm452 443.591-131.57-32.079v-72.872c0-8.284-6.716-14.999-15-14.999s-15 6.715-15 14.999v72.873l-128.86 32.078v-411.512l128.86-32.079v65.404c0 8.284 6.716 14.999 15 14.999s15-6.715 15-14.999v-65.404l131.57 32.079z"/><path d="m335.43 144.607c-21.8 0-42.788 10.302-56.144 27.56-14.653 18.939-18.231 42.379-10.075 66 5.371 15.549 14.755 28.254 23.83 40.541 6.385 8.643 3.647 4.835 30.087 42.732 5.962 8.543 18.636 8.551 24.604 0 26.41-37.856 23.707-34.096 30.086-42.732 9.075-12.287 18.459-24.992 23.83-40.541 8.157-23.62 4.579-47.059-10.074-66-.001-.001-.001-.001-.002-.002-13.356-17.256-34.343-27.558-56.142-27.558zm37.86 83.767c-3.872 11.211-11.514 21.558-19.604 32.512-6.381 8.641-5.544 7.535-18.256 25.757-12.589-18.045-11.779-16.984-18.257-25.757-8.091-10.954-15.732-21.301-19.604-32.511-3.356-9.719-5.136-24.175 5.445-37.851 7.714-9.968 19.832-15.919 32.416-15.919 12.583 0 24.7 5.95 32.415 15.917 10.582 13.679 8.801 28.135 5.445 37.852z"/><circle cx="335.429" cy="216.183" r="15"/></g></svg>