<svg id="Capa_1" enable-background="new 0 0 512 512" height="512" viewBox="0 0 512 512" width="512" xmlns="http://www.w3.org/2000/svg"><g><path d="m443.761 33.707h-375.521c-37.628 0-68.24 30.612-68.24 68.239v308.107c0 37.627 30.612 68.239 68.24 68.239h375.521c37.627 0 68.239-30.612 68.239-68.239v-308.107c0-37.627-30.612-68.239-68.239-68.239zm38.239 376.347c0 21.085-17.154 38.239-38.239 38.239h-375.521c-21.085 0-38.24-17.154-38.24-38.239v-308.108c0-21.085 17.154-38.239 38.24-38.239h375.521c21.085 0 38.239 17.154 38.239 38.239z"/><path d="m271 262.992v-154.285c0-8.284-6.716-15-15-15s-15 6.716-15 15v154.285c-17.786 6.217-30.583 23.155-30.583 43.036s12.798 36.818 30.583 43.036v54.229c0 8.284 6.716 15 15 15s15-6.716 15-15v-54.229c17.786-6.217 30.583-23.155 30.583-43.036s-12.797-36.818-30.583-43.036zm-14.986 58.619c-.005 0-.01-.001-.014-.001s-.01.001-.014.001c-8.586-.008-15.569-6.995-15.569-15.583 0-8.593 6.991-15.583 15.583-15.583s15.583 6.991 15.583 15.583c0 8.588-6.982 15.575-15.569 15.583z"/><path d="m140.5 162.927v-54.22c0-8.284-6.716-15-15-15s-15 6.716-15 15v54.22c-17.786 6.217-30.583 23.155-30.583 43.035s12.798 36.818 30.583 43.036v154.295c0 8.284 6.716 15 15 15s15-6.716 15-15v-154.295c17.786-6.217 30.583-23.155 30.583-43.036s-12.797-36.818-30.583-43.035zm-15 58.618c-8.593 0-15.583-6.991-15.583-15.583 0-8.589 6.986-15.577 15.574-15.583h.01s.006 0 .01 0c8.588.005 15.574 6.993 15.574 15.583-.002 8.593-6.992 15.583-15.585 15.583z"/><path d="m401.5 162.927v-54.22c0-8.284-6.716-15-15-15s-15 6.716-15 15v54.22c-17.786 6.217-30.583 23.155-30.583 43.035s12.797 36.818 30.583 43.036v154.295c0 8.284 6.716 15 15 15s15-6.716 15-15v-154.295c17.786-6.217 30.583-23.155 30.583-43.036s-12.797-36.818-30.583-43.035zm-15 58.618c-8.593 0-15.583-6.991-15.583-15.583 0-8.589 6.985-15.577 15.573-15.583h.01s.006 0 .01 0c8.588.005 15.573 6.993 15.573 15.583 0 8.593-6.99 15.583-15.583 15.583z"/></g></svg>