<svg id="Capa_1" enable-background="new 0 0 512 512" height="512" viewBox="0 0 512 512" width="512" xmlns="http://www.w3.org/2000/svg"><g><path d="m372.21 0h-232.42c-26.95 0-48.79 21.802-48.79 48.79v414.42c0 26.903 21.887 48.79 48.79 48.79h232.42c26.903 0 48.79-21.887 48.79-48.79 0-6.708 0-407.662 0-414.42 0-26.946-21.795-48.79-48.79-48.79zm-251.21 48.79c0-10.388 8.412-18.79 18.79-18.79h232.42c10.311 0 18.79 8.336 18.79 18.79v11.21h-270zm251.21 433.21h-232.42c-10.36 0-18.79-8.43-18.79-18.79v-373.21h270v373.21c0 10.36-8.43 18.79-18.79 18.79z"/><path d="m165.999 220h60c8.284 0 15-6.716 15-15v-60c0-8.284-6.716-15-15-15h-60c-8.284 0-15 6.716-15 15v60c0 8.284 6.716 15 15 15zm15-60h30v30h-30z"/><path d="m240.999 325v-60c0-8.284-6.716-15-15-15h-60c-8.284 0-15 6.716-15 15v60c0 8.284 6.716 15 15 15h60c8.284 0 15-6.716 15-15zm-30-15h-30v-30h30z"/><path d="m345.999 250h-60c-8.284 0-15 6.716-15 15v60c0 8.284 6.716 15 15 15h60c8.284 0 15-6.716 15-15v-60c0-8.284-6.716-15-15-15zm-15 60h-30v-30h30z"/><path d="m345.999 130h-60c-8.284 0-15 6.716-15 15v60c0 8.284 6.716 15 15 15h60c8.284 0 15-6.716 15-15v-60c0-8.284-6.716-15-15-15zm-15 60h-30v-30h30z"/><path d="m277.608 422h-43.217c-8.284 0-15 6.716-15 15s6.716 15 15 15h43.217c8.284 0 15-6.716 15-15s-6.715-15-15-15z"/></g></svg>