<svg id="Capa_1" enable-background="new 0 0 512.002 512.002" height="512" viewBox="0 0 512.002 512.002" width="512" xmlns="http://www.w3.org/2000/svg"><g><path d="m28.915 497.002c0 8.284 6.716 15 15 15h60c8.284 0 15-6.716 15-15v-70c0-8.284-6.716-15-15-15h-60c-8.284 0-15 6.716-15 15zm30-55h30v40h-30z"/><path d="m238.915 497.002v-144.16c0-8.284-6.716-15-15-15h-60c-8.284 0-15 6.716-15 15v144.16c0 8.284 6.716 15 15 15h60c8.284 0 15-6.716 15-15zm-30-15h-30v-114.16h30z"/><path d="m358.915 497.002v-255.354c0-8.284-6.716-15-15-15h-60c-8.284 0-15 6.716-15 15v255.354c0 8.284 6.716 15 15 15h60c8.284 0 15-6.716 15-15zm-30-15h-30v-225.354h30z"/><path d="m478.915 497.002v-365.963c0-8.284-6.716-15-15-15h-60c-8.284 0-15 6.716-15 15v365.963c0 8.284 6.716 15 15 15h60c8.284 0 15-6.716 15-15zm-30-15h-30v-335.963h30z"/><path d="m476.515 2.595c-6.853-4.656-16.182-2.875-20.837 3.978l-33.611 49.467h-51.248c-5.581 0-10.701 3.099-13.289 8.043l-53.694 102.566h-49.921c-5.476 0-10.517 2.984-13.151 7.785l-56.729 103.408h-50.12c-4.939 0-9.561 2.431-12.359 6.5l-46.53 67.66h-31.111c-8.284 0-15 6.716-15 15s6.716 15 15 15h39c4.938 0 9.561-2.431 12.359-6.5l46.53-67.66h51.111c5.476 0 10.517-2.984 13.151-7.785l56.729-103.408h50.12c5.581 0 10.701-3.099 13.289-8.043l53.694-102.566h50.112c4.969 0 9.615-2.46 12.407-6.57l38.075-56.037c4.656-6.853 2.875-16.182-3.977-20.838z"/></g></svg>