<svg id="Capa_1" enable-background="new 0 0 512 512" height="512" viewBox="0 0 512 512" width="512" xmlns="http://www.w3.org/2000/svg"><g><path d="m353.681 217.681h60c8.284 0 15-6.716 15-15v-107.681c0-8.284-6.716-15-15-15h-315.362c-8.284 0-15 6.716-15 15v107.681c0 8.284 6.716 15 15 15h60c8.284 0 15-6.716 15-15v-32.681h37.681v212h-23.84c-8.284 0-15 6.716-15 15v60c0 8.284 6.716 15 15 15h137.68c8.284 0 15-6.716 15-15v-60c0-8.284-6.716-15-15-15h-23.84v-212h37.681v32.681c0 8.284 6.715 15 15 15zm-67.681-77.681c-8.284 0-15 6.716-15 15v242c0 8.284 6.716 15 15 15h23.84v30h-107.68v-30h23.84c8.284 0 15-6.716 15-15v-242c0-8.284-6.716-15-15-15h-67.681c-8.284 0-15 6.716-15 15v32.681h-30v-77.681h285.361v77.681h-30v-32.681c0-8.284-6.716-15-15-15z"/><path d="m15 114.235c8.284 0 15-6.716 15-15v-69.235h69.235c8.284 0 15-6.716 15-15s-6.716-15-15-15h-84.235c-8.284 0-15 6.716-15 15v84.235c0 8.285 6.716 15 15 15z"/><path d="m497 0h-84.235c-8.284 0-15 6.716-15 15s6.716 15 15 15h69.235v69.235c0 8.284 6.716 15 15 15s15-6.716 15-15v-84.235c0-8.284-6.716-15-15-15z"/><path d="m497 397.765c-8.284 0-15 6.716-15 15v69.235h-69.235c-8.284 0-15 6.716-15 15s6.716 15 15 15h84.235c8.284 0 15-6.716 15-15v-84.235c0-8.285-6.716-15-15-15z"/><path d="m15 512h84.235c8.284 0 15-6.716 15-15s-6.716-15-15-15h-69.235v-69.235c0-8.284-6.716-15-15-15s-15 6.716-15 15v84.235c0 8.284 6.716 15 15 15z"/></g></svg>