<svg id="Capa_1" enable-background="new 0 0 512 512" height="512" viewBox="0 0 512 512" width="512" xmlns="http://www.w3.org/2000/svg"><g><path d="m304.825 0h-97.65c-8.284 0-15 6.716-15 15v19.27h-22.85c-8.284 0-15 6.716-15 15v16.2h-66.42c-8.284 0-15 6.716-15 15v416.53c0 8.284 6.716 15 15 15h336.189c8.284 0 15-6.716 15-15v-416.53c0-8.284-6.716-15-15-15h-66.41v-16.2c0-8.284-6.716-15-15-15h-22.859v-19.27c0-8.284-6.716-15-15-15zm104.27 95.47v386.53h-306.19v-386.53h51.42v15c0 8.284 6.716 15 15 15h173.359c8.284 0 15-6.716 15-15v-15zm-81.41-31.2v31.2h-143.36c0-11.667 0-19.068 0-31.2h22.85c8.284 0 15-6.716 15-15v-19.27h67.65v19.27c0 8.284 6.716 15 15 15z"/><path d="m256.004 164.752c-26.092-26.048-65.51-24.102-89.036-.576-.039.039-.077.077-.116.117-11.742 11.801-18.207 27.462-18.207 44.116.001 16.708 6.508 32.416 18.322 44.229l78.432 78.424c5.858 5.857 15.355 5.857 21.213-.001l78.423-78.424c11.814-11.813 18.32-27.521 18.32-44.229s-6.506-32.416-18.32-44.229c-23.676-23.677-63.072-25.431-89.031.573zm67.817 66.673-67.817 67.817-67.824-67.818c-12.722-12.72-12.724-33.309-.001-46.032.027-.027.056-.056.083-.083 12.697-12.61 33.288-12.584 45.952.08l11.185 11.185c5.855 5.855 15.357 5.857 21.215-.001l11.173-11.177c12.722-12.724 33.312-12.724 46.035-.003 12.719 12.721 12.722 33.309-.001 46.032z"/><path d="m147.9 395.46h108.464c8.284 0 15-6.716 15-15s-6.716-15-15-15h-108.464c-8.284 0-15 6.716-15 15s6.716 15 15 15z"/><path d="m364.095 425.455h-216.19c-8.284 0-15 6.716-15 15s6.716 15 15 15h216.189c8.284 0 15-6.716 15-15s-6.715-15-14.999-15z"/><path d="m301.364 380.46c0 8.284 6.716 15 15 15h47.73c8.284 0 15-6.716 15-15s-6.716-15-15-15h-47.73c-8.284 0-15 6.716-15 15z"/></g></svg>