<svg id="Capa_1" enable-background="new 0 0 512 512" height="512" viewBox="0 0 512 512" width="512" xmlns="http://www.w3.org/2000/svg"><g><path d="m91.25 443.67h83.631l71.041 64.44c5.72 5.187 14.437 5.186 20.156 0l71.041-64.44h83.631c50.315 0 91.25-40.935 91.25-91.25v-149.09c0-50.315-40.935-91.25-91.25-91.25-8.284 0-15 6.716-15 15s6.716 15 15 15c33.773 0 61.25 27.477 61.25 61.25v149.09c0 33.773-27.477 61.25-61.25 61.25h-89.42c-3.726 0-7.318 1.387-10.078 3.89l-65.252 59.188-65.252-59.188c-2.76-2.503-6.353-3.89-10.078-3.89h-89.42c-33.773 0-61.25-27.477-61.25-61.25v-149.09c0-33.773 27.477-61.25 61.25-61.25 8.284 0 15-6.716 15-15s-6.716-15-15-15c-50.315 0-91.25 40.935-91.25 91.25v149.09c0 50.315 40.935 91.25 91.25 91.25z"/><path d="m256 0c-68.164 0-123.62 55.456-123.62 123.62s55.456 123.62 123.62 123.62 123.62-55.456 123.62-123.62-55.456-123.62-123.62-123.62zm0 217.24c-51.622 0-93.62-41.998-93.62-93.62s41.998-93.62 93.62-93.62 93.62 41.998 93.62 93.62-41.998 93.62-93.62 93.62z"/><path d="m102.231 315.455c-8.284 0-15 6.716-15 15s6.716 15 15 15h62.513c8.284 0 15-6.716 15-15s-6.716-15-15-15z"/><path d="m224.744 315.455c-8.284 0-15 6.716-15 15s6.716 15 15 15h62.512c8.284 0 15-6.716 15-15s-6.716-15-15-15z"/><path d="m332.256 330.455c0 8.284 6.716 15 15 15h62.513c8.284 0 15-6.716 15-15s-6.716-15-15-15h-62.513c-8.284 0-15 6.716-15 15z"/><path d="m310.706 73.438c-6.678-4.903-16.066-3.466-20.969 3.211l-43.859 59.723-23.615-32.156c-4.904-6.677-14.292-8.116-20.969-3.211-6.677 4.903-8.114 14.291-3.211 20.969l35.705 48.619c5.992 8.158 18.193 8.151 24.18 0l55.949-76.186c4.903-6.678 3.466-16.066-3.211-20.969z"/></g></svg>