<svg id="Capa_1" enable-background="new 0 0 512 512" height="512" viewBox="0 0 512 512" width="512" xmlns="http://www.w3.org/2000/svg"><g><path d="m454.62 122.61h-.087l-12.598-29.567c-11.142-26.147-36.707-43.043-65.13-43.043h-161.61c-28.423 0-53.988 16.896-65.13 43.044l-12.599 29.566h-80.086c-31.639 0-57.38 25.741-57.38 57.38v224.63c0 31.64 25.741 57.38 57.38 57.38h397.24c31.64 0 57.38-25.74 57.38-57.38v-224.63c0-31.639-25.74-57.38-57.38-57.38zm27.38 282.01c0 15.098-12.282 27.38-27.38 27.38h-397.24c-15.097 0-27.38-12.282-27.38-27.38v-224.63c0-15.098 12.283-27.38 27.38-27.38h90c6.012 0 11.443-3.589 13.799-9.12l16.485-38.687c6.421-15.067 21.152-24.803 37.531-24.803h161.609c16.379 0 31.11 9.736 37.531 24.804l16.484 38.687c2.356 5.531 7.788 9.12 13.8 9.12h10c15.098 0 27.38 12.282 27.38 27.38v224.629z"/><path d="m296 129.516c-75.124 0-136.242 61.118-136.242 136.242s61.118 136.242 136.242 136.242 136.242-61.118 136.242-136.242-61.118-136.242-136.242-136.242zm0 242.484c-58.582 0-106.242-47.66-106.242-106.242s47.66-106.242 106.242-106.242 106.242 47.66 106.242 106.242-47.66 106.242-106.242 106.242z"/><path d="m263.307 211.854c-5.857-5.857-15.355-5.857-21.213 0-14.402 14.402-22.334 33.546-22.334 53.906 0 20.361 7.932 39.506 22.334 53.907 5.857 5.857 15.356 5.857 21.213-.001s5.856-15.355-.001-21.214c-8.736-8.734-13.547-20.345-13.547-32.692s4.811-23.957 13.547-32.693c5.859-5.858 5.859-15.356.001-21.213z"/><path d="m94.879 182.61c-8.284 0-15 6.716-15 15v59.789c0 8.284 6.716 15 15 15s15-6.716 15-15v-59.789c0-8.284-6.716-15-15-15z"/><path d="m94.879 303.597c-8.284 0-15 6.716-15 15v59.79c0 8.284 6.716 15 15 15s15-6.716 15-15v-59.79c0-8.284-6.716-15-15-15z"/></g></svg>