<svg id="Capa_1" enable-background="new 0 0 512 512" height="512" viewBox="0 0 512 512" width="512" xmlns="http://www.w3.org/2000/svg"><g><path d="m436.12 263.447c-51.049-43.332-113.46-77.604-180.12-77.604-66.68 0-129.094 34.291-180.12 77.604-44.464 37.743-71.859 75.071-73.003 76.641-3.836 5.264-3.836 12.403 0 17.667 1.145 1.571 28.539 38.899 73.003 76.641 51.05 43.333 113.461 77.604 180.12 77.604 66.677 0 129.092-34.29 180.12-77.604 44.464-37.743 71.858-75.071 73.003-76.641 3.836-5.264 3.836-12.403 0-17.667-1.144-1.57-28.539-38.898-73.003-76.641zm-19.927 148.513c-37.76 31.952-96.202 70.04-160.193 70.04s-122.434-38.088-160.193-70.04c-29.436-24.91-51.288-50.123-61.771-63.039 10.485-12.918 32.337-38.131 61.771-63.039 37.759-31.952 96.202-70.04 160.193-70.04s122.434 38.088 160.193 70.04c29.434 24.907 51.285 50.12 61.771 63.039-10.485 12.919-32.337 38.132-61.771 63.039z"/><path d="m256 261.276c-48.329 0-87.647 39.317-87.647 87.645s39.318 87.645 87.647 87.645 87.647-39.317 87.647-87.645-39.318-87.645-87.647-87.645zm0 145.292c-31.787 0-57.647-25.86-57.647-57.646s25.86-57.646 57.647-57.646 57.647 25.86 57.647 57.646-25.86 57.646-57.647 57.646z"/><path d="m256 155.844c8.284 0 15-6.716 15-15v-125.844c0-8.284-6.716-15-15-15s-15 6.716-15 15v125.845c0 8.283 6.716 14.999 15 14.999z"/><path d="m136.878 161.118c3.815 7.356 12.869 10.222 20.222 6.409 7.354-3.814 10.224-12.867 6.409-20.221l-57.943-111.713c-3.814-7.354-12.869-10.222-20.222-6.409-7.354 3.814-10.224 12.867-6.409 20.221z"/><path d="m354.899 167.527c7.352 3.814 16.408.945 20.222-6.409l57.943-111.712c3.814-7.354.945-16.407-6.409-20.221-7.352-3.814-16.407-.945-20.222 6.409l-57.943 111.712c-3.814 7.354-.945 16.407 6.409 20.221z"/></g></svg>