<svg id="Capa_1" enable-background="new 0 0 512 512" height="512" viewBox="0 0 512 512" width="512" xmlns="http://www.w3.org/2000/svg"><g><path d="m305.261 228.677c34.557 0 62.67-28.188 62.67-62.838s-28.113-62.838-62.67-62.838c-34.556 0-62.669 28.188-62.669 62.838s28.113 62.838 62.669 62.838zm0-95.676c18.015 0 32.67 14.731 32.67 32.838s-14.655 32.838-32.67 32.838c-18.014 0-32.669-14.731-32.669-32.838s14.655-32.838 32.669-32.838z"/><path d="m497 43.001h-482c-8.284 0-15 6.716-15 15v395.998c0 .043.006.084.006.127 0 5.774 4.788 14.873 15 14.873 351.442-.167 448.77 0 481.993 0 8.284 0 15-6.716 15-15 0-11.141 0-386.102 0-395.998.001-8.284-6.715-15-14.999-15zm-15 30v239.44l-66.18-66.415c-5.86-5.881-15.39-5.88-21.25 0l-89.309 89.625-86.128-86.434c-5.86-5.881-15.39-5.88-21.25 0l-167.883 168.478v-344.694zm-430.86 365.98 157.368-157.925c.001.001 157.219 157.776 157.219 157.776zm430.86.018h-73.757l-81.807-82.097 78.759-79.037 76.805 77.077z"/></g></svg>