<svg id="Capa_1" enable-background="new 0 0 511.999 511.999" height="512" viewBox="0 0 511.999 511.999" width="512" xmlns="http://www.w3.org/2000/svg"><g><path d="m4.392 331.61 175.997 175.997c5.853 5.854 15.356 5.858 21.213 0l219.807-219.807c7.801-7.801 13.719-17.473 17.114-27.97l28.091-86.843c4.382-13.546.85-28.216-9.218-38.284l-29.444-29.444 79.653-79.653c5.858-5.857 5.858-15.355 0-21.213-5.857-5.858-15.355-5.858-21.213 0l-79.653 79.653-29.444-29.445c-10.068-10.066-24.74-13.6-38.284-9.216l-86.844 28.09c-10.496 3.395-20.168 9.313-27.969 17.114l-219.806 219.808c-5.854 5.852-5.857 15.356 0 21.213zm241.02-219.807c4.46-4.46 9.989-7.843 15.989-9.783l86.844-28.091c2.774-.897 5.776-.174 7.837 1.887l29.444 29.444-23.038 23.038c-16.723-7.966-37.381-5.045-51.208 8.782-17.546 17.546-17.546 46.094 0 63.64s46.094 17.545 63.639 0c13.828-13.828 16.749-34.485 8.782-51.209l23.038-23.038 29.443 29.444c2.062 2.062 2.785 5.065 1.888 7.839l-28.091 86.843c-1.941 6.001-5.324 11.529-9.783 15.989l-209.2 209.2-154.784-154.785zm108.294 67.703c-5.864 5.863-15.35 5.863-21.213 0-5.849-5.849-5.849-15.365 0-21.213 5.849-5.849 15.366-5.848 21.214-.001 5.86 5.862 5.861 15.352-.001 21.214z"/></g></svg>