<svg id="Capa_1" enable-background="new 0 0 512 512" height="512" viewBox="0 0 512 512" width="512" xmlns="http://www.w3.org/2000/svg"><g><path d="m497 75.9h-68.577v-28.55c0-8.284-6.716-15-15-15s-15 6.716-15 15v28.55h-284.846v-28.55c0-8.284-6.716-15-15-15s-15 6.716-15 15v28.55h-68.577c-8.284 0-15 6.716-15 15v96.38 277.37c0 8.284 6.716 15 15 15h482c8.284 0 15-6.716 15-15v-277.37-96.38c0-8.284-6.716-15-15-15zm-467 30h53.577v21.381c0 8.284 6.716 15 15 15s15-6.716 15-15v-21.381h284.846v21.381c0 8.284 6.716 15 15 15s15-6.716 15-15v-21.381h53.577v66.38h-452zm452 343.75h-452v-247.37h452z"/><path d="m101.892 270.965h52.739c8.284 0 15-6.716 15-15s-6.716-15-15-15h-52.739c-8.284 0-15 6.716-15 15s6.715 15 15 15z"/><path d="m229.63 270.965h52.739c8.284 0 15-6.716 15-15s-6.716-15-15-15h-52.739c-8.284 0-15 6.716-15 15s6.716 15 15 15z"/><path d="m357.37 270.965h52.739c8.284 0 15-6.716 15-15s-6.716-15-15-15h-52.739c-8.284 0-15 6.716-15 15s6.715 15 15 15z"/><path d="m101.892 340.965h52.739c8.284 0 15-6.716 15-15s-6.716-15-15-15h-52.739c-8.284 0-15 6.716-15 15s6.715 15 15 15z"/><path d="m229.63 340.965h52.739c8.284 0 15-6.716 15-15s-6.716-15-15-15h-52.739c-8.284 0-15 6.716-15 15s6.716 15 15 15z"/><path d="m357.37 340.965h52.739c8.284 0 15-6.716 15-15s-6.716-15-15-15h-52.739c-8.284 0-15 6.716-15 15s6.715 15 15 15z"/><path d="m101.892 410.965h52.739c8.284 0 15-6.716 15-15s-6.716-15-15-15h-52.739c-8.284 0-15 6.716-15 15s6.715 15 15 15z"/><path d="m229.63 410.965h52.739c8.284 0 15-6.716 15-15s-6.716-15-15-15h-52.739c-8.284 0-15 6.716-15 15s6.716 15 15 15z"/><path d="m357.37 410.965h52.739c8.284 0 15-6.716 15-15s-6.716-15-15-15h-52.739c-8.284 0-15 6.716-15 15s6.715 15 15 15z"/></g></svg>