<svg id="Capa_1" enable-background="new 0 0 512 512" height="512" viewBox="0 0 512 512" width="512" xmlns="http://www.w3.org/2000/svg"><g><path d="m467.783 168.41 30.144-30.144c5.858-5.857 5.858-15.355 0-21.213l-102.98-102.98c-5.857-5.857-15.355-5.857-21.213 0l-30.144 30.144-39.823-39.824c-5.857-5.857-15.355-5.857-21.213 0l-278.16 278.161c-5.858 5.857-5.858 15.355 0 21.213l203.84 203.84c5.858 5.858 15.355 5.858 21.213 0l278.16-278.16c5.858-5.857 5.858-15.355 0-21.213zm-83.443-122.518 81.768 81.768-19.537 19.537-81.768-81.767zm-165.5 429.895-182.627-182.627 214.521-214.521 182.627 182.627zm235.733-235.733-182.626-182.627 21.214-21.214c22.523 22.523 162.861 162.861 182.627 182.627z"/><path d="m341.188 219.155c-1.258-8.188-8.924-13.798-17.104-12.548l-131.491 20.204c-12.01 1.838-17.072 16.687-8.328 25.433l54.556 54.557-102.226 15.707c-8.188 1.259-13.806 8.916-12.548 17.104 1.256 8.173 8.897 13.805 17.104 12.548l131.49-20.204c12.277-1.898 16.889-16.872 8.328-25.433l-54.556-54.557 102.227-15.706c8.187-1.259 13.806-8.916 12.548-17.105z"/></g></svg>