<svg id="Capa_1" enable-background="new 0 0 512 512" height="512" viewBox="0 0 512 512" width="512" xmlns="http://www.w3.org/2000/svg"><g><path d="m256 0c-141.491 0-256 114.497-256 256 0 141.491 114.497 256 256 256 141.491 0 256-114.497 256-256 0-141.491-114.497-256-256-256zm159.806 415.807c-88.05 88.05-231.427 88.185-319.612-.001-88.118-88.118-88.117-231.494 0-319.613 44.059-44.058 101.932-66.087 159.806-66.087 57.873 0 115.748 22.029 159.807 66.088 88.117 88.118 88.116 231.494-.001 319.613z"/><path d="m398.024 173.976c0-33.16-26.836-60-60-60-16.026 0-31.094 6.241-42.427 17.574l-39.597 39.597-39.598-39.598c-11.333-11.333-26.4-17.574-42.427-17.574-33.16 0-60 26.836-60 60 0 16.026 6.241 31.094 17.574 42.427l39.598 39.598-39.598 39.598c-11.333 11.333-17.574 26.4-17.574 42.427 0 33.16 26.836 60 60 60 16.026 0 31.094-6.241 42.427-17.574l39.598-39.598 39.598 39.598c11.333 11.333 26.4 17.574 42.427 17.574 33.16 0 60-26.836 60-60 0-16.026-6.241-31.094-17.574-42.427l-39.598-39.598 39.598-39.598c11.332-11.333 17.573-26.4 17.573-42.426zm-38.787 21.213-50.204 50.204c-5.858 5.857-5.858 15.355 0 21.213l50.204 50.204c5.666 5.667 8.787 13.2 8.787 21.214 0 16.579-13.419 30-30 30-8.014 0-15.547-3.121-21.214-8.787l-50.204-50.204c-5.858-5.858-15.355-5.858-21.213 0l-50.204 50.204c-5.667 5.666-13.2 8.787-21.214 8.787-16.579 0-30-13.419-30-30 0-8.014 3.121-15.547 8.787-21.214l50.204-50.204c5.858-5.857 5.858-15.355 0-21.213l-50.204-50.204c-5.666-5.667-8.787-13.2-8.787-21.214 0-16.579 13.419-30 30-30 8.014 0 15.547 3.121 21.214 8.787l50.204 50.204c5.857 5.857 15.355 5.857 21.213 0l50.204-50.204c5.667-5.666 13.2-8.787 21.214-8.787 16.579 0 30 13.419 30 30 0 8.014-3.121 15.547-8.787 21.214z"/></g></svg>