<svg id="Capa_1" enable-background="new 0 0 512 512" height="512" viewBox="0 0 512 512" width="512" xmlns="http://www.w3.org/2000/svg"><g><path d="m374.379 13.586c-28.379-10.689-58.38-15.107-89.166-13.125-7.894.507-14.037 7.058-14.037 14.969v210.396c0 8.284 6.716 15 15 15h210.396c7.911 0 14.461-6.143 14.969-14.037 1.979-30.789-2.437-60.789-13.126-89.168-21.44-56.927-67.037-102.568-124.036-124.035zm-73.204 197.239v-180.818c48.16.424 92.937 19.139 127.308 53.511 34.372 34.372 53.087 79.147 53.511 127.307z"/><path d="m409.922 271.184h-169.104v-169.106c0-7.911-6.143-14.462-14.038-14.969-61.78-3.989-120.848 18.197-164.491 61.84-40.168 40.158-62.289 93.562-62.289 150.378 0 56.812 22.121 110.22 62.288 150.386 40.166 40.166 93.574 62.287 150.387 62.287 91.163 0 168.919-57.483 199.092-137.603 10.687-28.379 15.103-58.381 13.124-89.176-.507-7.894-7.058-14.037-14.969-14.037zm-315.38 167.487 116.273-116.271v159.592c-42.143-.418-83.071-15.074-116.273-43.321zm-11.041-268.507c34.375-34.375 79.144-53.089 127.318-53.508v163.315l-137.49 137.488c-28.038-32.964-43.329-74.368-43.329-118.132 0-48.8 18.999-94.671 53.501-129.163zm157.317 309.684v-178.665h154.527c-.81 92.486-69.492 165.492-154.527 178.665z"/></g></svg>