<svg id="Capa_1" enable-background="new 0 0 512 512" height="512" viewBox="0 0 512 512" width="512" xmlns="http://www.w3.org/2000/svg"><g><path d="m497 177.16h-159.57v-112.67c0-8.284-6.716-15-15-15h-307.43c-8.284 0-15 6.716-15 15v255.34c0 8.284 6.716 15 15 15h159.57v112.68c0 8.284 6.716 15 15 15h307.43c8.284 0 15-6.716 15-15v-255.35c0-8.284-6.716-15-15-15zm-467-97.67h277.43v225.34c-8.213 0-273.258 0-277.43 0zm452 353.02h-277.43v-97.68h117.86c8.284 0 15-6.716 15-15v-112.67h144.57z"/><path d="m111.213 139.49h26.366c8.284 0 15-6.716 15-15s-6.716-15-15-15h-62.579c-8.315 0-15 6.787-15 15v62.579c0 8.284 6.716 15 15 15s15-6.716 15-15v-26.366l42.063 42.063c5.858 5.858 15.355 5.858 21.213 0 5.858-5.857 5.858-15.355 0-21.213z"/></g></svg>