<svg id="Capa_1" enable-background="new 0 0 512 512" height="512" viewBox="0 0 512 512" width="512" xmlns="http://www.w3.org/2000/svg"><g><path d="m389.11 0h-266.22c-8.284 0-15 6.716-15 15v59.989c0 8.284 6.716 15 15 15h15.82c0 70.014-.238 68.158.735 76.88.015.164.036.325.056.488 4.415 38.095 27.158 70.68 59.163 88.688-35.749 20.115-59.954 58.417-59.954 102.271v63.694h-15.82c-8.284 0-15 6.716-15 15v59.99c0 8.284 6.716 15 15 15h266.22c8.284 0 15-6.716 15-15v-59.989c0-8.284-6.716-15-15-15h-15.82v-63.694c0-31.325-12.2-60.774-34.354-82.925-7.7-7.698-16.284-14.191-25.52-19.391 32.02-18.049 54.754-50.697 59.107-88.85.006-.053.013-.106.018-.16.999-8.862.749-7.382.749-77.001h15.82c8.284 0 15-6.716 15-15v-59.99c0-8.284-6.715-15-15-15zm-15 482h-236.22v-29.989h236.221v29.989zm-176.499-59.989 41.988-32.485c10.028-6.197 22.775-6.196 32.802 0l41.988 32.485zm145.679-63.695v48.124l-53.094-41.077c-.341-.263-.692-.512-1.054-.745-20.135-12.972-46.152-12.972-66.285 0-.362.233-.714.482-1.055.745l-53.092 41.077v-48.124c0-43.009 31.281-78.847 72.29-85.978v33.121c0 8.284 6.716 15 15 15s15-6.716 15-15v-33.113c17.608 3.033 33.831 11.369 46.725 24.259 16.486 16.485 25.565 38.401 25.565 61.711zm-87.29-117.271c-38.805 0-71.771-25.449-83.092-60.528h166.185c-11.322 35.079-44.288 60.528-83.093 60.528zm87.29-90.528h-174.58v-60.528h174.58zm30.82-90.528c-6.347 0-228.601 0-236.221 0v-29.989h236.221z"/></g></svg>