<svg id="Capa_1" enable-background="new 0 0 512 512" height="512" viewBox="0 0 512 512" width="512" xmlns="http://www.w3.org/2000/svg"><g><path d="m497 0h-482c-8.284 0-15 6.716-15 15v332c0 8.284 6.716 15 15 15h189.597v30h-4.269c-41.355 0-75 33.645-75 75 0 8.284 6.716 15 15 15h231.344c8.284 0 15-6.716 15-15 0-41.355-33.645-75-75-75h-4.269v-30h189.597c8.284 0 15-6.716 15-15v-332c0-8.284-6.716-15-15-15zm-15 30v242h-452v-242zm-127.898 422h-196.204c6.19-17.461 22.873-30 42.43-30h111.344c19.557 0 36.239 12.539 42.43 30zm-76.699-60h-42.807v-30h42.807zm-247.403-60v-30h452v30c-4.618 0-432.222 0-452 0z"/><path d="m82.067 229.199h106.865c8.284 0 15-6.716 15-15v-11.667c0-23.966-12.394-45.08-31.099-57.307 5.702-7.71 9.081-17.237 9.081-27.541 0-25.594-20.821-46.415-46.415-46.415s-46.415 20.821-46.415 46.415c0 10.304 3.379 19.831 9.081 27.541-18.705 12.227-31.099 33.341-31.099 57.307v11.667c.001 8.284 6.717 15 15.001 15zm37.018-111.514c0-9.052 7.363-16.415 16.415-16.415s16.415 7.363 16.415 16.415-7.363 16.416-16.415 16.416-16.415-7.365-16.415-16.416zm16.415 46.416c20.069 0 36.595 15.462 38.289 35.099h-76.578c1.694-19.637 18.22-35.099 38.289-35.099z"/><path d="m301.879 163.599h135.121c8.284 0 15-6.716 15-15s-6.716-15-15-15h-135.121c-8.284 0-15 6.716-15 15s6.716 15 15 15z"/><path d="m301.879 103.599h135.121c8.284 0 15-6.716 15-15s-6.716-15-15-15h-135.121c-8.284 0-15 6.716-15 15s6.716 15 15 15z"/><path d="m301.879 223.599h135.121c8.284 0 15-6.716 15-15s-6.716-15-15-15h-135.121c-8.284 0-15 6.716-15 15s6.716 15 15 15z"/></g></svg>