<svg id="Capa_1" enable-background="new 0 0 512 512" height="512" viewBox="0 0 512 512" width="512" xmlns="http://www.w3.org/2000/svg"><g><path d="m0 256c0 41.355 33.645 75 75 75s75-33.645 75-75-33.645-75-75-75-75 33.645-75 75zm120 0c0 24.813-20.187 45-45 45s-45-20.187-45-45 20.187-45 45-45 45 20.187 45 45z"/><path d="m437 331c41.355 0 75-33.645 75-75s-33.645-75-75-75-75 33.645-75 75 33.645 75 75 75zm0-120c24.813 0 45 20.187 45 45s-20.187 45-45 45-45-20.187-45-45 20.187-45 45-45z"/><path d="m181 256c0 41.355 33.645 75 75 75s75-33.645 75-75-33.645-75-75-75-75 33.645-75 75zm120 0c0 24.813-20.187 45-45 45s-45-20.187-45-45 20.187-45 45-45 45 20.187 45 45z"/></g></svg>