<svg id="Capa_1" enable-background="new 0 0 512 512" height="512" viewBox="0 0 512 512" width="512" xmlns="http://www.w3.org/2000/svg"><g><path d="m486.265 15c0-8.284-6.716-15-15-15h-288.87c-86.383 0-156.66 70.276-156.66 156.657v340.332c0 11.808 12.985 18.895 22.903 12.749l76.729-47.561c8.831-5.474 18.992-8.367 29.383-8.367h174.865c86.377 0 156.649-70.271 156.649-156.647v-282.163zm-30 282.163c0 69.833-56.814 126.647-126.649 126.647h-174.865c-15.98 0-31.606 4.45-45.188 12.868l-53.827 33.365v-313.386c0-69.839 56.819-126.657 126.66-126.657h273.87v267.163z"/><path d="m255.995 291.57c8.284 0 15-6.716 15-15v-174.717c0-8.284-6.716-15-15-15s-15 6.716-15 15v174.718c0 8.284 6.716 14.999 15 14.999z"/><circle cx="255.995" cy="337.11" r="15"/></g></svg>