<svg id="Capa_1" enable-background="new 0 0 512 512" height="512" viewBox="0 0 512 512" width="512" xmlns="http://www.w3.org/2000/svg"><g><path d="m114.505 376.283-104.957 104.957c-5.858 5.858-5.858 15.355 0 21.213 5.857 5.858 15.355 5.859 21.213 0l104.957-104.958 110.111 110.111c5.857 5.858 15.355 5.859 21.213 0 31.245-31.245 48.461-72.797 48.476-117.002 0-.001 0-.003 0-.005 0-21.913-4.417-43.791-12.817-63.906l68.435-68.435c35.636 19.659 80.51 13.325 109.381-15.531l27.093-27.104c5.855-5.858 5.854-15.354-.003-21.211l-190.019-190.018c-5.856-5.857-15.353-5.859-21.211-.002l-27.109 27.097c-28.861 28.875-35.192 73.768-15.525 109.375l-68.425 68.425c-61.636-25.853-133.107-12.147-180.924 35.67-5.858 5.858-5.858 15.355 0 21.213zm160.954-214.71c9.148-9.147 11.127-23.432 4.79-34.772-13.53-24.064-9.32-54.537 10.232-74.1l16.497-16.49 168.811 168.811-16.484 16.492c-19.567 19.558-50.041 23.768-74.139 10.22-11.304-6.32-25.59-4.342-34.737 4.806l-62.514 62.514c-5.751-8.645-12.845-17.434-20.873-25.461l-28.634-28.634c-7.928-7.928-16.695-15.039-25.462-20.873zm-58.263 104.598 28.634 28.635c49.098 49.093 52.914 126.977 10.029 180.404l-219.063-219.063c53.58-42.923 131.24-39.133 180.4 10.024z"/></g></svg>